<?xml version="1.0" standalone="no"?>
<!DOCTYPE svg PUBLIC "-//W3C//DTD SVG 20010904//EN"
 "http://www.w3.org/TR/2001/REC-SVG-20010904/DTD/svg10.dtd">
<svg version="1.0" xmlns="http://www.w3.org/2000/svg"
 width="70pt" height="55pt" viewBox="0 0 1202.000000 905.000000"
 preserveAspectRatio="xMidYMid meet">

<g transform="translate(0.000000,905.000000) scale(0.100000,-0.100000)"
fill="#000" stroke="none">
<path d="M0 4525 l0 -4525 6010 0 6010 0 0 4525 0 4525 -6010 0 -6010 0 0
-4525z m8790 1587 c37 -8 127 -72 180 -128 82 -88 110 -181 74 -243 -24 -41
-51 -53 -125 -59 -166 -12 -391 124 -465 283 -13 28 -24 60 -24 72 0 12 -10
29 -22 37 -22 16 -22 16 17 17 39 1 39 2 10 9 -24 6 282 17 318 11 4 0 7 5 7
12 0 7 3 8 8 2 4 -5 14 -11 22 -13z m-993 -69 c-5 -26 33 -67 451 -487 l456
-459 81 -2 c308 -7 640 -378 523 -587 -30 -54 -83 -82 -168 -86 -234 -13 -539
246 -557 472 -5 56 2 87 35 148 2 4 -129 143 -290 310 -161 167 -364 379 -452
470 -149 157 -162 168 -208 177 -27 6 -63 19 -81 29 l-32 17 80 3 c54 2 75 6
65 12 -10 7 3 10 44 10 58 0 58 0 53 -27z m-3483 -253 l149 -80 71 14 c198 41
374 -100 312 -248 -62 -148 -368 -138 -446 14 -11 22 -20 59 -20 84 l0 44
-197 113 c-109 62 -207 118 -218 126 -17 11 -4 13 90 13 l110 0 149 -80z
m3445 -178 c93 -46 164 -150 147 -216 -7 -27 -29 -53 -62 -72 -18 -10 -8 -42
163 -560 100 -302 191 -579 203 -615 l20 -66 59 -22 c252 -92 470 -392 446
-616 -12 -113 -55 -178 -146 -224 -323 -161 -824 306 -724 675 23 84 89 157
159 176 34 9 46 17 46 31 0 10 -83 288 -185 618 -102 330 -185 601 -185 603 0
2 -29 22 -65 45 -106 69 -153 173 -104 235 41 52 131 55 228 8z m-4488 -145
c151 -49 249 -140 285 -264 9 -29 16 -53 17 -53 15 -4 1545 -120 1576 -120 39
0 48 5 78 39 46 54 104 75 190 69 201 -15 330 -206 226 -336 -45 -56 -94 -77
-183 -77 -107 1 -183 41 -246 129 l-21 30 -717 52 c-395 29 -765 55 -824 59
l-107 6 -35 -56 c-96 -157 -286 -250 -510 -249 -127 0 -217 24 -305 82 -121
78 -170 161 -170 287 0 74 3 86 39 153 47 89 112 149 212 198 125 62 181 74
324 70 72 -3 145 -11 171 -19z m4080 -361 c137 -57 224 -219 165 -308 -21 -33
-82 -58 -141 -58 -24 0 -47 -4 -50 -10 -3 -5 -109 -278 -235 -606 l-229 -597
62 -69 c74 -82 139 -197 161 -284 20 -77 20 -211 2 -280 -44 -165 -174 -281
-342 -305 -221 -31 -468 114 -584 345 -110 218 -87 449 58 598 97 100 264 142
410 104 47 -13 53 -13 61 2 5 10 118 279 250 599 l241 582 -37 52 c-30 42 -38
63 -41 110 -4 52 -1 63 22 94 15 19 41 39 59 44 40 13 123 6 168 -13z m-810
-224 c87 -42 156 -129 165 -208 7 -66 -25 -130 -81 -162 -55 -32 -158 -28
-230 9 l-50 25 -678 -340 -678 -341 6 -30 c39 -205 -3 -356 -138 -490 -113
-113 -238 -165 -396 -165 -186 0 -339 76 -447 222 -117 160 -119 395 -5 562
102 148 277 236 471 236 133 0 266 -49 354 -131 24 -21 48 -39 53 -39 6 0 311
146 679 324 l669 325 -3 45 c-6 81 22 133 93 171 43 23 156 16 216 -13z m1360
-2936 c90 -31 153 -72 222 -144 98 -103 147 -231 147 -382 0 -161 -50 -282
-164 -396 -221 -220 -561 -220 -781 1 -115 115 -165 234 -165 395 0 161 50
283 164 396 80 79 162 125 266 149 89 20 221 12 311 -19z m-4862 -3 c41 -106
381 -1040 381 -1050 0 -10 -34 -13 -138 -13 l-139 0 -34 93 -34 92 -186 3
-186 2 -35 -92 -35 -93 -142 -3 c-77 -1 -141 0 -141 2 0 7 364 1001 383 1049
l16 37 139 0 140 0 11 -27z m723 -390 l3 -418 208 -3 207 -2 0 -125 0 -125
-340 0 -340 0 0 545 0 545 130 0 130 0 2 -417z m1138 395 c168 -78 244 -282
166 -440 -21 -41 -20 -45 8 -79 45 -53 68 -135 64 -219 -8 -135 -72 -236 -186
-292 l-67 -33 -292 -3 -293 -4 0 540 c0 296 3 542 7 546 4 4 132 6 283 4 227
-3 281 -7 310 -20z m1079 -502 c106 -288 195 -533 198 -545 5 -21 3 -21 -135
-21 l-140 0 -18 48 c-10 26 -25 67 -35 92 l-17 45 -187 0 -187 0 -17 -45 c-10
-25 -25 -66 -35 -92 l-18 -48 -139 0 c-76 0 -139 4 -139 8 0 5 88 248 195 541
107 293 195 535 195 537 0 2 64 4 143 4 l143 0 193 -524z m802 514 c114 -22
209 -93 259 -193 73 -148 39 -334 -78 -438 l-45 -39 112 -200 c61 -111 111
-203 111 -206 0 -2 -68 -3 -151 -2 l-152 3 -96 172 -96 173 -62 0 -63 0 0
-175 0 -175 -135 0 -135 0 0 538 c0 296 3 542 7 545 10 11 465 8 524 -3z
m2043 -255 c93 -146 173 -265 177 -265 5 0 9 119 9 265 l0 265 130 0 130 0 0
-545 0 -546 -111 3 -111 3 -190 297 c-105 164 -194 295 -199 292 -5 -3 -9
-138 -9 -300 l0 -294 -130 0 -130 0 0 538 c0 296 3 542 7 545 3 4 63 7 132 7
l126 0 169 -265z"/>
<path d="M8478 6093 c7 -3 16 -2 19 1 4 3 -2 6 -13 5 -11 0 -14 -3 -6 -6z"/>
<path d="M7630 1701 c-73 -22 -141 -83 -182 -161 -34 -66 -32 -176 4 -245 31
-60 77 -104 138 -136 65 -34 186 -34 250 -1 221 115 218 422 -5 528 -52 25
-150 32 -205 15z"/>
<path d="M2861 1505 c-12 -30 -30 -80 -42 -110 -11 -30 -18 -59 -14 -65 7 -11
144 -14 161 -2 11 8 -62 232 -77 232 -4 0 -17 -25 -28 -55z"/>
<path d="M4565 1698 c-3 -13 -5 -49 -3 -79 l3 -54 122 0 c113 0 124 2 144 22
28 28 28 79 -1 107 -18 19 -35 21 -140 24 -119 4 -119 4 -125 -20z"/>
<path d="M4567 1313 c-4 -3 -7 -44 -7 -90 l0 -83 144 0 c144 0 145 0 165 26
33 42 24 109 -18 141 -17 13 -272 19 -284 6z"/>
<path d="M5629 1533 c-48 -123 -69 -189 -65 -200 7 -16 151 -19 161 -3 8 12
-66 230 -78 230 -4 0 -12 -12 -18 -27z"/>
<path d="M6524 1707 c-2 -7 -3 -60 -2 -118 l3 -104 91 -3 c54 -2 106 2 129 10
44 15 85 66 85 107 0 39 -36 90 -75 107 -46 19 -223 20 -231 1z"/>
</g>
</svg>
